<svg width="325" height="193" viewBox="0 0 325 193" fill="none" xmlns="http://www.w3.org/2000/svg">
<path d="M139.173 9.375C151.829 -3.125 172.383 -3.125 185.039 9.375L314.639 137.375C323.953 146.575 326.687 160.275 321.625 172.275C316.562 184.275 304.817 192.075 291.655 192.075H32.4562C19.395 192.075 7.54883 184.275 2.48635 172.275C-2.57612 160.275 0.258864 146.575 9.47257 137.375L139.072 9.375H139.173ZM139.173 9.375C151.829 -3.125 172.383 -3.125 185.039 9.375L314.639 137.375C323.953 146.575 326.687 160.275 321.625 172.275C316.562 184.275 304.817 192.075 291.655 192.075H32.4562C19.395 192.075 7.54883 184.275 2.48635 172.275C-2.57612 160.275 0.258864 146.575 9.47257 137.375L139.072 9.375" fill="black"/>
</svg>
