<svg width="322" height="449" viewBox="0 0 322 449" fill="none" xmlns="http://www.w3.org/2000/svg">
<path d="M138.4 9.375C150.9 -3.125 171.2 -3.125 183.7 9.375L311.7 137.375C320.9 146.575 323.6 160.275 318.6 172.275C313.6 184.275 302 192.075 289 192.075H33C20.1 192.075 8.40001 184.275 3.40001 172.275C-1.59999 160.275 1.20001 146.575 10.3 137.375L138.3 9.375H138.4ZM138.4 438.675L10.4 310.675C1.20001 301.475 -1.49999 287.775 3.50001 275.775C8.50001 263.775 20.1 255.975 33.1 255.975H289C301.9 255.975 313.6 263.775 318.6 275.775C323.6 287.775 320.8 301.475 311.7 310.675L183.7 438.675C171.2 451.175 150.9 451.175 138.4 438.675V438.675Z" fill="black"/>
</svg>
