<svg width="321" height="449" viewBox="0 0 321 449" fill="none" xmlns="http://www.w3.org/2000/svg">
<path d="M137.456 9.375C149.956 -3.125 170.256 -3.125 182.756 9.375L310.756 137.375C319.956 146.575 322.656 160.275 317.656 172.275C312.656 184.275 301.056 192.075 288.056 192.075H32.0557C19.1557 192.075 7.45567 184.275 2.45567 172.275C-2.54433 160.275 0.25567 146.575 9.35567 137.375L137.356 9.375H137.456ZM137.456 438.675L9.45567 310.675C0.25567 301.475 -2.44433 287.775 2.55567 275.775C7.55567 263.775 19.1557 255.975 32.1557 255.975H288.056C300.956 255.975 312.656 263.775 317.656 275.775C322.656 287.775 319.856 301.475 310.756 310.675L182.756 438.675C170.256 451.175 149.956 451.175 137.456 438.675V438.675Z" fill="#DBDBDB"/>
</svg>
