<svg width="321" height="449" viewBox="0 0 321 449" fill="none" xmlns="http://www.w3.org/2000/svg">
<path d="M9.4559 310.675L137.456 438.675C149.956 451.175 170.256 451.175 182.756 438.675L310.756 310.675C319.856 301.475 322.656 287.775 317.656 275.775C312.656 263.775 300.956 255.975 288.056 255.975H32.1559C19.1559 255.975 7.5559 263.775 2.5559 275.775C-2.4441 287.775 0.255903 301.475 9.4559 310.675Z" fill="black"/>
<path d="M137.456 9.375C149.956 -3.125 170.256 -3.125 182.756 9.375L310.756 137.375C319.956 146.575 322.656 160.275 317.656 172.275C312.656 184.275 301.056 192.075 288.056 192.075H32.0557C19.1557 192.075 7.45567 184.275 2.45567 172.275C-2.54433 160.275 0.25567 146.575 9.35567 137.375L137.356 9.375H137.456ZM137.456 9.375C149.956 -3.125 170.256 -3.125 182.756 9.375L310.756 137.375C319.956 146.575 322.656 160.275 317.656 172.275C312.656 184.275 301.056 192.075 288.056 192.075H32.0557C19.1557 192.075 7.45567 184.275 2.45567 172.275C-2.54433 160.275 0.25567 146.575 9.35567 137.375L137.356 9.375H137.456Z" fill="#DBDBDB"/>
</svg>
