<svg width="325" height="449" viewBox="0 0 325 449" fill="none" xmlns="http://www.w3.org/2000/svg">
<path d="M9.57405 310.675L139.173 438.675C151.83 451.175 172.383 451.175 185.039 438.675L314.639 310.675C323.852 301.475 326.687 287.775 321.625 275.775C316.562 263.775 304.716 255.975 291.655 255.975H32.5577C19.3952 255.975 7.65031 263.775 2.58784 275.775C-2.47464 287.775 0.259101 301.475 9.57405 310.675Z" fill="#DBDBDB"/>
<path d="M139.173 9.375C151.829 -3.125 172.383 -3.125 185.039 9.375L314.639 137.375C323.953 146.575 326.687 160.275 321.625 172.275C316.562 184.275 304.817 192.075 291.655 192.075H32.4562C19.395 192.075 7.54883 184.275 2.48635 172.275C-2.57612 160.275 0.258864 146.575 9.47257 137.375L139.072 9.375H139.173ZM139.173 9.375C151.829 -3.125 172.383 -3.125 185.039 9.375L314.639 137.375C323.953 146.575 326.687 160.275 321.625 172.275C316.562 184.275 304.817 192.075 291.655 192.075H32.4562C19.395 192.075 7.54883 184.275 2.48635 172.275C-2.57612 160.275 0.258864 146.575 9.47257 137.375L139.072 9.375" fill="black"/>
</svg>
