<svg xmlns="http://www.w3.org/2000/svg" fill="none" viewBox="0 0 325 193"><path fill="#000" d="M139.173 9.375c12.656-12.5 33.21-12.5 45.866 0l129.6 128c9.314 9.2 12.048 22.9 6.986 34.9-5.063 12-16.808 19.8-29.97 19.8H32.456c-13.061 0-24.907-7.8-29.97-19.8-5.062-12-2.227-25.7 6.987-34.9l129.599-128h.101Zm0 0c12.656-12.5 33.21-12.5 45.866 0l129.6 128c9.314 9.2 12.048 22.9 6.986 34.9-5.063 12-16.808 19.8-29.97 19.8H32.456c-13.061 0-24.907-7.8-29.97-19.8-5.062-12-2.227-25.7 6.987-34.9l129.599-128"/></svg>